<svg version="1.2" xmlns="http://www.w3.org/2000/svg" viewBox="0 0 400 400" width="400" height="400">
	<title>smiling_face-svg</title>
	<style>
		.s0 { opacity: 1;fill: #000000 } 
	</style>
	<path id="Path 0" fill-rule="evenodd" class="s0" d="m287.3 71.5c3.7 0.3 9.1 1.4 11.9 2.4 2.9 1.1 7.5 4 10.3 6.4 3 2.6 5.9 6.3 7.2 9.3 1.2 2.7 3.8 10.3 5.8 16.9 2.6 8.6 3.8 14.7 4.2 21.5 0.4 5.9 0.1 12-0.6 16-0.7 3.6-2.5 8.9-3.9 11.9-1.5 3-5.4 8.4-8.8 12-3.3 3.6-8.5 8.2-11.5 10.2-3 1.9-7.9 4.5-10.9 5.7-3 1.2-8.6 2.9-12.5 3.7-3.9 0.8-11.5 1.5-17 1.5-7.7 0-11.3-0.5-15.5-2.1-3-1.1-6.6-3-7.9-4.2-1.3-1.2-4.1-4.3-6.2-6.9-2.4-3-3.9-5.8-3.9-7.5 0-1.6-1.1-7.1-2.4-12.3-1.3-5.2-3-14.9-3.6-21.5-0.9-8.9-0.9-14.2-0.1-20.5 0.6-4.7 1.8-10.7 2.8-13.5 1.2-3.7 3.2-6.5 7.7-10.8 3.4-3.1 8.6-7 11.6-8.6 3-1.6 8.6-3.8 12.5-5 3.9-1.1 10.8-2.7 15.5-3.5 4.7-0.9 11.5-1.3 15.2-1.1zm-22.7 18.2c-3.9 0.9-9.1 2.6-11.8 3.9-2.6 1.3-4.9 2.9-5.2 3.4-0.3 0.6 2.1 1 6.2 1 3.8 0 9.3 0.7 12.3 1.6 3 0.9 6.6 2.4 8 3.2 1.4 0.9 5.3 4.5 8.8 8.1 3.7 3.9 6.6 8 7.2 10.1 0.6 1.9 1 7.8 1 13 0 5.2-0.7 12.2-1.5 15.5-0.8 3.3-2.6 7.7-4 9.8-1.4 2-4.1 4.9-6 6.5-1.9 1.5-5.8 4-8.7 5.5l-5.3 2.8c8.5-1 14.1-2.4 18-3.8 3.9-1.4 8.6-3.7 10.5-5.1 1.9-1.5 5.7-4.9 8.4-7.7 2.6-2.7 5.8-7 7-9.5 1.8-3.8 2.1-6.2 2-16 0-10.7-0.3-12.4-4.2-24-2.3-6.9-4.9-13.6-5.9-14.9-1-1.4-3.6-3.3-5.8-4.3-2.8-1.2-6.3-1.7-12-1.7-4.4 0.1-8.9 0.3-10 0.6-1.1 0.2-5.1 1.1-9 2zm54.2 110.4c5.3-0.1 8.8 0.5 13 2.1 3.1 1.3 7.7 4.1 10.2 6.4 2.6 2.2 6.1 7 8 10.5 1.9 3.5 4.5 9.6 5.8 13.4 1.3 4 2.6 10.7 2.9 15.5 0.4 4.7 0.1 13-0.5 18.5-0.8 6.6-2 11.9-3.7 15.5-1.4 3-2.4 6.6-2.3 8 0 1.4 0.1 3.5 0 4.7-0.1 1.4-1.3 3-3.1 4-1.7 1-3.3 2.7-3.7 3.8-0.4 1.1-3.4 5.4-6.8 9.5-3.4 4.1-7 8.8-8.1 10.4-1 1.6-5 5-8.9 7.4-3.9 2.5-9.5 5.7-12.5 7.3-3 1.5-14.7 5.5-26 8.9-11.3 3.3-24.8 6.7-30 7.5-5.2 0.8-18.1 2.6-28.5 4-16.4 2.1-22.8 2.5-46.8 2.5-19.5 0-30.6-0.4-37.7-1.5-5.5-0.8-15.5-3.1-22.3-5.1-6.7-1.9-16.4-5.1-30.7-10.4l-2.8 2c-1.5 1.2-3.8 2.1-5.2 2-1.4 0-3.5-0.7-4.8-1.5-1.2-0.8-2.2-2.2-2.2-3 0-0.8-2-4-4.5-7-2.5-3-5.9-7.8-7.5-10.5-1.7-2.8-3.7-7.8-4.6-11.3-1.1-4.2-1.7-10.7-1.8-20.2-0.1-12.8 0.1-14.4 2.2-18.5 1.3-2.5 4.2-6.4 6.5-8.8 2.3-2.4 7.8-6.7 12.2-9.6 4.4-2.9 9.6-5.9 11.5-6.6 1.9-0.7 10.5-1.4 19-1.7 10.2-0.4 18.1-0.1 23 0.7 4.1 0.7 10.1 2.3 13.2 3.6 3.2 1.3 11.1 5.2 29.3 14.9l9.5-0.2c5.2-0.1 10.8-0.2 12.5-0.2 1.6-0.1 7.9 0.3 14 0.7 6.5 0.5 12 0.5 13.5-0.1 1.4-0.5 8.8-5.3 16.5-10.7 7.7-5.3 16.4-11.9 19.4-14.6 3-2.7 8.6-8.7 12.5-13.4 3.9-4.7 8.9-10.4 11.1-12.8 2.2-2.4 6-5.6 8.5-7.2 2.5-1.6 6.5-3.6 9-4.5 2.5-0.9 6.7-2.2 9.5-3 2.7-0.8 8.3-1.4 12.2-1.4zm-30.2 29.5c-4.4 4.8-12.8 13.7-18.8 19.6-7.2 7.3-10.3 11-9.5 11.5 0.7 0.5 5.7 10 11.1 21.3 5.4 11.3 12 25 14.8 30.5 2.7 5.5 4.9 10.8 4.9 11.7 0 1 0.8 2.1 1.7 2.4 1 0.3 3.6-0.1 5.8-1.1 2.2-0.9 7.3-3.8 11.4-6.3 4.1-2.6 8.6-6.3 10-8.2 1.4-1.9 4.3-5.5 6.5-8 2.2-2.5 4.8-6.4 5.8-8.8 1.6-3.7 1.6-4.5 0.4-7-0.7-1.5-5-7.2-9.4-12.7-4.4-5.5-13.5-15.4-20.2-22-6.7-6.6-12.6-13-13.1-14.3-0.6-1.4-0.5-3.1 0.1-4.7 0.5-1.4 2-3.2 3.2-4.1 1.6-1 3.3-1.3 5.3-0.9 2.1 0.5 7.5 5.2 17.5 15.4 8 8 17 17.9 20 21.9l5.5 7.3c1.3-5.1 1.5-12.9 1.3-20.6l-0.3-14c-7.7-15.8-9.3-18-12.7-20.3-3.3-2.1-5.5-2.8-10.7-2.9-5.2-0.2-8.3 0.3-14.6 2.6-7.5 2.8-8.5 3.5-16 11.7zm-204.8 38.7c-2.8 1.8-6.9 4.9-9.1 6.8-2.1 1.9-4.5 4.8-5.4 6.4-1.2 2.4-1.4 5.2-0.9 14 0.4 6.1 1.3 13.2 2.1 16 1.1 3.6 2.7 6.2 6 9.2 2.5 2.4 5 4.3 5.6 4.3 0.5 0 6.7 2.2 13.7 5 7.1 2.7 19.1 6.9 26.8 9.1l14 4.2 48.5 0.7v-60c-5.8-0.7-10.2-1.2-13.5-1.6-4.7-0.5-8.9-2.2-19-7.4l-13-6.8c-2 11.1-3.8 22.2-5.2 31.8-1.3 9.6-2.8 19.5-3.2 22-0.4 2.5-1.5 6-2.4 7.7-0.9 1.8-2.7 3.8-4 4.4-1.2 0.6-3.4 0.8-5 0.5-1.5-0.3-3.4-1.6-4.3-2.9-1.2-1.8-1.3-3.2-0.5-7.7 0.5-3 1.6-9.1 2.5-13.5 0.8-4.4 2.7-16.1 4.2-26 1.5-9.9 2.4-18.8 2-19.8-0.5-1.5-2.1-1.7-13.9-1.6-7.2 0.1-14.9 0.5-17 1-2 0.5-6.1 2.4-9 4.2zm143.3 13c-3.9 1.9-5.9 2.2-15.3 1.9l-10.7-0.2v61c7 0 19.2-1.3 31.7-3 15-1.9 26.4-3.9 33.3-6 5.8-1.7 10.6-3.1 10.8-3.3 0.1-0.1-0.4-2-1.2-4.2-0.7-2.2-5.4-12.8-10.4-23.5-4.9-10.7-10.9-23.2-13.3-27.8-2.4-4.5-4.6-8.2-4.9-8.2-0.3 0.1-3.9 2.6-8 5.6-4.1 3-9.5 6.5-12 7.7zm-94.5-200.8l6.5 3.7c3.6 2 8.9 6.2 11.9 9.5 2.9 3.2 6.9 8.7 8.8 12.3 2 3.6 4.5 8.3 5.6 10.5 2 3.8 2 4.7 1 16.5-0.6 6.9-1.8 14.3-2.7 16.5-0.9 2.2-4.2 8.9-7.4 15-5.4 10.4-6.1 11.2-12.2 15.3-3.6 2.3-11.4 7-17.5 10.4-6.6 3.6-12.6 6.3-15 6.6-3 0.3-4.7-0.1-6.8-1.7-2.1-1.7-3.6-2-7-1.5-2.3 0.3-6 0.2-8.2-0.2-3-0.6-5.6-2.3-10.3-6.8-3.5-3.4-7.2-7.9-8.2-10.1-1-2.2-2.4-7.6-3.1-12-0.8-5.1-1-12.9-0.6-21.5 0.3-9 1.2-16.2 2.7-21.5 1.1-4.4 3.4-11.8 5.1-16.5 1.7-4.7 3.7-9.6 4.4-11 0.7-1.4 2.5-4 4.1-5.9 1.6-1.8 4.2-4 5.9-4.9 1.6-0.8 5.2-1.8 8-2.3 2.7-0.4 11.7-0.7 35-0.4zm-35.3 16c-1.2 0.3-2.9 1.8-3.7 3.5-0.8 1.7-1.5 3.2-1.5 3.5 0 0.3 4.3 0.5 9.5 0.5 5.2 0 10.6 0.5 12 1 1.4 0.6 5.9 4.5 10 8.8 4.2 4.2 7.9 8.8 8.3 10.2 0.4 1.4 0.7 7 0.7 12.5 0 7.4-0.5 11.2-1.8 14.5-1.1 2.5-2.8 5.7-3.8 7.3-1 1.5-3.6 3.6-5.7 4.6-2 1-7.6 2.8-12.5 4-4.8 1.2-12 2.1-16.2 2.1-4.3 0-7.5 0.4-7.5 1 0 0.6 1.3 2.6 3 4.5 2.9 3.4 3.3 3.5 9.7 3.5 3.8 0 8.6 0.6 10.8 1.4l4 1.5c18.6-10.9 24.7-14.8 25.6-15.7 0.9-1 4-6.2 6.8-11.7 4.8-9.3 5.3-10.7 6.1-20.2 1-9.8 0.9-10.5-1.3-14-1.2-2.1-3-5.4-4-7.3-0.9-1.9-3.2-5.3-5-7.4-1.7-2.2-5.5-5.2-8.2-6.7-4.6-2.7-5.7-2.9-15-2.7-5.5 0.1-11.8 0.3-14 0.5-2.2 0.2-5 0.6-6.3 0.8z"/>
</svg>